<?xml version="1.0" encoding="UTF-8"?>
<svg xmlns="http://www.w3.org/2000/svg" viewBox="0 0 1000 1000" width="1000" height="1000">
  <defs>
    <!-- Cyan/blue brand radial gradient (center bright cyan to deep blue edge) -->
    <radialGradient id="g" cx="50%" cy="50%" r="55%">
      <stop offset="0%" stop-color="#00e5ff"/>
      <stop offset="55%" stop-color="#0ea5e9"/>
      <stop offset="100%" stop-color="#1e40af"/>
    </radialGradient>

    <!-- Vignette: subtle darkening at edges -->
    <radialGradient id="v" cx="50%" cy="50%" r="52%">
      <stop offset="70%" stop-color="#000000" stop-opacity="0"/>
      <stop offset="100%" stop-color="#000000" stop-opacity="0.35"/>
    </radialGradient>

    <!-- Sphere clip path -->
    <clipPath id="sphereClip">
      <circle cx="500" cy="500" r="460"/>
    </clipPath>
  </defs>

  <!-- Background fill -->
  <rect width="100%" height="100%" fill="none"/>
  <g clip-path="url(#sphereClip)">
    <circle cx="500" cy="500" r="460" fill="url(#g)"/>

    <!-- Latitude lines (ellipses) -->
    <g fill="none" stroke="#000" stroke-opacity="0.7" stroke-width="6">
      <ellipse cx="500" cy="500" rx="430" ry="360"/>
      <ellipse cx="500" cy="500" rx="430" ry="270"/>
      <ellipse cx="500" cy="500" rx="430" ry="180"/>
      <ellipse cx="500" cy="500" rx="430" ry="90"/>
    </g>

    <!-- Longitude lines (vertical ellipses; rotated groups) -->
    <g fill="none" stroke="#000" stroke-opacity="0.7" stroke-width="6">
      <ellipse cx="500" cy="500" rx="200" ry="440"/>
      <g transform="rotate(30 500 500)">
        <ellipse cx="500" cy="500" rx="200" ry="440"/>
      </g>
      <g transform="rotate(60 500 500)">
        <ellipse cx="500" cy="500" rx="200" ry="440"/>
      </g>
      <g transform="rotate(90 500 500)">
        <ellipse cx="500" cy="500" rx="200" ry="440"/>
      </g>
      <g transform="rotate(120 500 500)">
        <ellipse cx="500" cy="500" rx="200" ry="440"/>
      </g>
      <g transform="rotate(150 500 500)">
        <ellipse cx="500" cy="500" rx="200" ry="440"/>
      </g>
    </g>

    <!-- Vignette overlay -->
    <circle cx="500" cy="500" r="460" fill="url(#v)"/>
  </g>
</svg>
